HIERARCHY
ROOT Root
{
	OFFSET 0.00000 0.00000 0.00000
	CHANNELS 6 Xposition Yposition Zposition Zrotation Xrotation Yrotation
	JOINT Hip
	{
		OFFSET 0 0 0	
		CHANNELS 3 Zrotation Xrotation Yrotation
		JOINT Tummy
		{
			OFFSET 0 0.04 0	
			CHANNELS 3 Zrotation Xrotation Yrotation
			JOINT ChestBottom
			{
				OFFSET 0 0.194 0	
				CHANNELS 3 Zrotation Xrotation Yrotation
				JOINT ChestTop
				{
					OFFSET 0 0.166 0	
					CHANNELS 3 Zrotation Xrotation Yrotation
					JOINT LeftCollar
					{
						OFFSET 0 0.1 0	
						CHANNELS 3 Zrotation Xrotation Yrotation
						JOINT LeftUpperArm
						{
							OFFSET 0.156 -0.02 0.03	
							CHANNELS 3 Zrotation Xrotation Yrotation
							JOINT LeftForeArm
							{
								OFFSET 0.035 -0.27 -0.01	
								CHANNELS 3 Zrotation Xrotation Yrotation
								JOINT LeftHand
								{
									OFFSET 0.01 -0.27 0.01	
									CHANNELS 3 Zrotation Xrotation Yrotation
									End Site
									{
										OFFSET 0 -0.15 0
									}
								}
							}
						}
					}
					JOINT RightCollar
					{
						OFFSET 0 0.1 0	
						CHANNELS 3 Zrotation Xrotation Yrotation
						JOINT RightUpperArm
						{
							OFFSET -0.156 -0.02 0.03	
							CHANNELS 3 Zrotation Xrotation Yrotation
							JOINT RightForeArm
							{
								OFFSET -0.035 -0.27 -0.01	
								CHANNELS 3 Zrotation Xrotation Yrotation
								JOINT RightHand
								{
									OFFSET -0.01 -0.27 0.01	
									CHANNELS 3 Zrotation Xrotation Yrotation
									End Site
									{
										OFFSET 0 -0.15 0
									}
								}
							}
						}
					}
					JOINT Neck
					{
						OFFSET 0 0.1 0	
						CHANNELS 3 Zrotation Xrotation Yrotation
						JOINT Head
						{
							OFFSET 0 0.127 0.03	
							CHANNELS 3 Zrotation Xrotation Yrotation
							End Site
							{
								OFFSET 0 0.127 0.03
							}
						}
					}
				}
			}
		}
	}
	JOINT LeftHip
	{
		OFFSET 0 0 0	
		CHANNELS 3 Zrotation Xrotation Yrotation
		JOINT LeftThigh
		{
			OFFSET 0.088 -0.06 0	
			CHANNELS 3 Zrotation Xrotation Yrotation
			JOINT LeftLowerLeg
			{
				OFFSET 0 -0.39 0.02	
				CHANNELS 3 Zrotation Xrotation Yrotation
				JOINT LeftFootTop
				{
					OFFSET 0 -0.43 -0.02	
					CHANNELS 3 Zrotation Xrotation Yrotation
					JOINT LeftFootFront
					{
						OFFSET 0 -0.07 0.085	
						CHANNELS 3 Zrotation Xrotation Yrotation
						End Site
						{
							OFFSET 0 -0.005 0.09
						}
					}
				}
				JOINT LeftHeel
				{
					OFFSET 0 -0.43 -0.02	
					CHANNELS 3 Zrotation Xrotation Yrotation
					End Site
					{
						OFFSET 0 -0.075 -0.05
					}
				}
			}
		}
	}
	JOINT RightHip
	{
		OFFSET 0 0 0	
		CHANNELS 3 Zrotation Xrotation Yrotation
		JOINT RightThigh
		{
			OFFSET -0.088 -0.06 0	
			CHANNELS 3 Zrotation Xrotation Yrotation
			JOINT RightLowerLeg
			{
				OFFSET 0 -0.39 0.02	
				CHANNELS 3 Zrotation Xrotation Yrotation
				JOINT RightFootTop
				{
					OFFSET 0 -0.43 -0.02	
					CHANNELS 3 Zrotation Xrotation Yrotation
					JOINT RightFootFront
					{
						OFFSET 0 -0.07 0.085	
						CHANNELS 3 Zrotation Xrotation Yrotation
						End Site
						{
							OFFSET 0 -0.005 0.09
						}
					}
				}
				JOINT RightHeel
				{
					OFFSET 0 -0.43 -0.02	
					CHANNELS 3 Zrotation Xrotation Yrotation
					End Site
					{
						OFFSET 0 -0.075 -0.05
					}
				}
			}
		}
	}
}
MOTION
Frames: 25
Frame Time: 0.05
0 0.95228 0 -0 0 -0 0.93972 4.0173 6.401 -0.52583 -3.9102 0.087688 -0.52583 -3.9102 0.087687 -0.44198 -3.2845 0.076052 -0 0 -0 0.6132 5.2192 -5.5043 -9.8392 3.0465 25.895 11.294 -5.7438 -30.306 -0 0 -0 2.9721 2.4155 1.248 -2.8355 -0.26762 -1.667 2.5222 -0.29707 9.4625 -1.0891 -2.0002 -1.5308 -1.0891 -2.0002 -1.5308 0.93972 4.0173 6.401 2.9352 -9.4868 -6.6478 -0 0 -0 -0 0 -0 -0 0 -0 -0 0 -0 0.93972 4.0173 6.401 -8.8872 -2.6134 -1.9723 -0 0 -0 -0 0 -0 -0 0 -0 -0 0 -0 
0 0.95228 0 -0 0 -0 0.95072 4.0773 6.4312 -0.53286 -3.9857 0.069201 -0.53286 -3.9857 0.069201 -0.4478 -3.348 0.060608 -0 0 -0 0.62053 5.4189 -5.3773 -9.8326 3.0823 25.879 11.28 -5.7289 -30.221 -0 0 -0 2.9682 2.5978 1.3883 -2.8321 -0.33234 -1.6823 2.5714 -0.36447 9.2615 -1.0853 -1.896 -1.4632 -1.0853 -1.896 -1.4632 0.95072 4.0773 6.4312 2.8953 -9.5479 -6.6614 -0 0 -0 -0 0 -0 -0 0 -0 -0 0 -0 0.95072 4.0773 6.4312 -8.9319 -2.7037 -1.9531 -0 0 -0 -0 0 -0 -0 0 -0 -0 0 -0 
0 0.95228 0 -0 0 -0 0.95614 4.1228 6.4681 -0.53736 -4.0197 0.049546 -0.53737 -4.0197 0.049547 -0.45149 -3.3765 0.044145 -0 0 -0 0.62698 5.5189 -5.2475 -9.8204 3.1164 25.854 11.301 -5.7281 -30.248 -0 0 -0 2.9766 2.6768 1.5435 -2.8242 -0.43013 -1.7324 2.5949 -0.38205 9.1359 -1.0742 -1.8518 -1.4163 -1.0742 -1.8518 -1.4163 0.95614 4.1228 6.4681 2.8639 -9.5927 -6.6731 -0 0 -0 -0 0 -0 -0 0 -0 -0 0 -0 0.95614 4.1228 6.4681 -8.9643 -2.7735 -1.9437 -0 0 -0 -0 0 -0 -0 0 -0 -0 0 -0 
0 0.95228 0 -0 0 -0 0.95568 4.1322 6.4844 -0.53544 -3.9603 0.040257 -0.53544 -3.9603 0.040256 -0.44983 -3.3266 0.036297 -0 0 -0 0.62994 5.4186 -5.1053 -9.7905 3.1219 25.778 11.313 -5.7225 -30.267 -0 0 -0 3.0145 2.5413 1.7601 -2.8419 -0.56325 -1.8491 2.5948 -0.32598 9.1584 -1.0593 -1.9456 -1.3893 -1.0593 -1.9456 -1.3893 0.95568 4.1322 6.4844 2.8485 -9.5973 -6.6533 -0 0 -0 -0 0 -0 -0 0 -0 -0 0 -0 0.95568 4.1322 6.4844 -8.9726 -2.8016 -1.932 -0 0 -0 -0 0 -0 -0 0 -0 -0 0 -0 
0 0.95228 0 -0 0 -0 0.91924 4.0998 6.4877 -0.52001 -3.8601 0.043821 -0.52001 -3.8601 0.043822 -0.43689 -3.2424 0.039158 -0 0 -0 0.62689 5.1902 -5.1058 -9.76 3.1308 25.803 11.316 -5.7391 -30.255 -0 0 -0 3.0349 2.3307 1.8119 -2.8336 -0.6978 -1.8412 2.6006 -0.25934 9.1507 -1.0424 -2.0789 -1.3798 -1.0424 -2.0789 -1.3798 0.91924 4.0998 6.4877 2.8495 -9.5773 -6.6532 -0 0 -0 -0 0 -0 -0 0 -0 -0 0 -0 0.91924 4.0998 6.4877 -8.9468 -2.8243 -1.9044 -0 0 -0 -0 0 -0 -0 0 -0 -0 0 -0 
0 0.95228 0 -0 0 -0 0.87719 4.0447 6.4677 -0.50839 -3.7401 0.06837 -0.50839 -3.7401 0.06837 -0.42725 -3.1416 0.05965 -0 0 -0 0.63643 4.914 -5.1693 -9.7387 3.1087 25.825 11.327 -5.7598 -30.207 -0 0 -0 3.0503 2.1036 1.7914 -2.7908 -0.83257 -1.8081 2.6039 -0.18686 9.1737 -1.0129 -2.2241 -1.3968 -1.0129 -2.2241 -1.3968 0.87719 4.0447 6.4677 2.8259 -9.5602 -6.6529 -0 0 -0 -0 0 -0 -0 0 -0 -0 0 -0 0.87719 4.0447 6.4677 -8.9103 -2.8638 -1.8629 -0 0 -0 -0 0 -0 -0 0 -0 -0 0 -0 
0 0.95228 0 -0 0 -0 0.79317 3.9303 6.4223 -0.48094 -3.5933 0.12238 -0.48094 -3.5933 0.12238 -0.40442 -3.0183 0.10481 -0 0 -0 0.63414 4.618 -5.3535 -9.7152 3.0725 25.843 11.332 -5.7732 -30.083 -0 0 -0 3.0155 1.8495 1.6499 -2.691 -0.94447 -1.6814 2.6103 -0.077172 9.121 -0.99365 -2.3827 -1.427 -0.99364 -2.3827 -1.427 0.79317 3.9303 6.4223 2.8724 -9.5245 -6.6848 -0 0 -0 -0 0 -0 -0 0 -0 -0 0 -0 0.79317 3.9303 6.4223 -8.7878 -2.8872 -1.8056 -0 0 -0 -0 0 -0 -0 0 -0 -0 0 -0 
0 0.95228 0 -0 0 -0 0.68264 3.7824 6.4777 -0.46402 -3.4233 0.18407 -0.46402 -3.4233 0.18407 -0.39044 -2.8755 0.15646 -0 0 -0 0.64951 4.3159 -5.7718 -9.6739 3.0219 25.925 11.331 -5.7906 -29.915 -0 0 -0 2.9666 1.5588 1.333 -2.5213 -1.0609 -1.4506 2.6255 0.35554 8.9392 -0.96112 -2.5415 -1.5 -0.96112 -2.5415 -1.5 0.68264 3.7824 6.4777 3.0648 -9.4052 -6.6772 -0 0 -0 -0 0 -0 -0 0 -0 -0 0 -0 0.68264 3.7824 6.4777 -8.6192 -2.841 -1.733 -0 0 -0 -0 0 -0 -0 0 -0 -0 0 -0 
0 0.95228 0 -0 0 -0 0.55872 3.6201 6.7771 -0.47515 -3.1895 0.24122 -0.47514 -3.1895 0.24122 -0.39995 -2.6791 0.20437 -0 0 -0 0.68527 3.8761 -6.4791 -9.6317 2.9031 26.143 11.386 -5.7165 -29.605 -0 0 -0 2.9086 1.1992 1.0512 -2.2825 -1.2561 -1.3286 2.7533 1.5557 8.4757 -0.88871 -2.7754 -1.6663 -0.88871 -2.7754 -1.6663 0.55872 3.6201 6.7771 3.4497 -9.2079 -6.373 -0 0 -0 -0 0 -0 -0 0 -0 -0 0 -0 0.55872 3.6201 6.7771 -8.4301 -2.7495 -1.6146 -0 0 -0 -0 0 -0 -0 0 -0 -0 0 -0 
0 0.95228 0 -0 0 -0 0.45597 3.605 7.5921 -0.55376 -3.039 0.25324 -0.55376 -3.039 0.25324 -0.46599 -2.5526 0.21466 -0 0 -0 0.79545 3.5565 -7.5228 -9.6199 2.6793 26.47 11.834 -4.7832 -28.47 -0 0 -0 2.8449 1.1988 1.1 -1.9979 -1.591 -1.6098 3.2297 3.3644 8.1348 -0.76547 -2.9862 -1.9678 -0.76547 -2.9862 -1.9678 0.45597 3.605 7.5921 3.7762 -9.1979 -5.7619 -0 0 -0 -0 0 -0 -0 0 -0 -0 0 -0 0.45597 3.605 7.5921 -8.1652 -2.7112 -1.5177 -0 0 -0 -0 0 -0 -0 0 -0 -0 0 -0 
0 0.95228 0 -0 0 -0 0.309 3.8171 9.044 -0.67966 -2.8888 0.18717 -0.67966 -2.8888 0.18717 -0.57147 -2.4264 0.1595 -0 0 -0 0.9601 2.9801 -8.8495 -9.6114 2.5119 27.013 12.118 -4.097 -26.869 -0 0 -0 2.8054 1.2723 1.6759 -1.6342 -2.0046 -2.6026 4.1149 5.7103 8.3041 -0.60402 -3.3588 -2.3717 -0.60402 -3.3588 -2.3717 0.309 3.8171 9.044 3.9225 -9.5976 -5.0568 -0 0 -0 -0 0 -0 -0 0 -0 -0 0 -0 0.309 3.8171 9.044 -7.8929 -2.8035 -1.1853 -0 0 -0 -0 0 -0 -0 0 -0 -0 0 -0 
0 0.95228 0 -0 0 -0 0.14813 4.086 11.077 -0.82847 -2.7009 0.083362 -0.82847 -2.7009 0.083362 -0.69609 -2.2687 0.072643 -0 0 -0 1.118 2.24 -10.273 -9.6105 2.2922 27.779 12.165 -4.0423 -26.161 -0 0 -0 2.8608 1.4035 2.7287 -1.4577 -2.4622 -3.8486 4.752 7.689 9.181 -0.42713 -3.7697 -2.8329 -0.42713 -3.7697 -2.8329 0.14813 4.086 11.077 3.9242 -10.507 -4.7321 -0 0 -0 -0 0 -0 -0 0 -0 -0 0 -0 0.14813 4.086 11.077 -7.7944 -3.0247 -0.73494 -0 0 -0 -0 0 -0 -0 0 -0 -0 0 -0 
0 0.95228 0 -0 0 -0 -0.07207 4.3026 13.476 -0.917 -2.5108 0.061468 -0.917 -2.5108 0.061468 -0.77038 -2.109 0.054329 -0 0 -0 1.1061 1.551 -11.596 -9.6403 2.0288 28.459 12.064 -4.3499 -25.997 -0 0 -0 2.9226 1.6608 4.0353 -1.4665 -2.785 -5.0694 4.5112 8.1029 10.088 -0.32049 -4.0236 -3.3031 -0.32049 -4.0236 -3.3031 -0.07207 4.3026 13.476 3.6994 -11.632 -4.6659 -0 0 -0 -0 0 -0 -0 0 -0 -0 0 -0 -0.07207 4.3026 13.476 -7.6239 -3.2027 -0.71217 -0 0 -0 -0 0 -0 -0 0 -0 -0 0 -0 
0 0.95228 0 -0 0 -0 -0.27581 4.5148 16.09 -0.96047 -2.2105 0.12635 -0.96047 -2.2105 0.12635 -0.80705 -1.8567 0.10862 -0 0 -0 0.97573 0.6471 -12.666 -9.7904 1.6676 28.985 11.822 -5.2577 -26.375 -0 0 -0 3.0509 1.4919 5.322 -1.8515 -2.651 -6.0359 3.7989 6.4599 10.597 -0.29207 -4.2084 -3.5897 -0.29207 -4.2084 -3.5897 -0.27581 4.5148 16.09 3.1442 -12.946 -5.3206 -0 0 -0 -0 0 -0 -0 0 -0 -0 0 -0 -0.27581 4.5148 16.09 -7.4077 -3.1723 -1.0551 -0 0 -0 -0 0 -0 -0 0 -0 -0 0 -0 
0 0.95228 0 -0 0 -0 -0.47503 4.6648 18.908 -0.90392 -1.9315 0.21171 -0.90392 -1.9315 0.21171 -0.75972 -1.6223 0.17987 -0 0 -0 0.65685 0.080063 -13.332 -10.02 1.207 29.153 11.534 -6.1113 -26.654 -0 0 -0 3.1164 1.16 6.5188 -2.4342 -1.9633 -6.8558 2.7319 3.7477 11.042 -0.32356 -4.1793 -3.6357 -0.32356 -4.1793 -3.6357 -0.47503 4.6648 18.908 2.5068 -14.376 -6.8005 -0 0 -0 -0 0 -0 -0 0 -0 -0 0 -0 -0.47503 4.6648 18.908 -7.2539 -3.0204 -1.3916 -0 0 -0 -0 0 -0 -0 0 -0 -0 0 -0 
0 0.95228 0 -0 0 -0 -0.75055 4.946 21.736 -0.78719 -1.8315 0.35399 -0.78719 -1.8315 0.35399 -0.66196 -1.5381 0.29902 -0 0 -0 0.38428 0.12904 -13.626 -10.432 0.71661 29.15 11.329 -6.4275 -26.794 -0 0 -0 3.2931 0.83456 7.8038 -3.3749 -0.91867 -7.6851 2.1627 1.6534 10.98 -0.37106 -4.0065 -3.6216 -0.37106 -4.0065 -3.6216 -0.75055 4.946 21.736 1.82 -15.897 -8.2329 -0 0 -0 -0 0 -0 -0 0 -0 -0 0 -0 -0.75055 4.946 21.736 -7.2359 -3.0948 -1.6417 -0 0 -0 -0 0 -0 -0 0 -0 -0 0 -0 
0 0.95228 0 -0 0 -0 -1.1258 5.3166 24.394 -0.60387 -1.8956 0.51223 -0.60387 -1.8956 0.51224 -0.50836 -1.592 0.43159 -0 0 -0 0.15556 0.65201 -13.191 -10.936 0.58351 28.994 11.314 -6.6054 -27.361 -0 0 -0 3.4709 0.63366 9.7381 -4.278 0.27097 -9.372 1.8206 0.37585 11.3 -0.463 -3.7573 -3.6586 -0.463 -3.7573 -3.6585 -1.1258 5.3166 24.394 1.2613 -17.475 -9.0931 -0 0 -0 -0 0 -0 -0 0 -0 -0 0 -0 -1.1258 5.3166 24.394 -7.2343 -3.4007 -2.0779 -0 0 -0 -0 0 -0 -0 0 -0 -0 0 -0 
0 0.95228 0 -0 0 -0 -1.5488 5.561 26.799 -0.39664 -2.0579 0.63103 -0.39664 -2.0579 0.63103 -0.33468 -1.7284 0.53098 -0 0 -0 0.029556 1.6294 -12.213 -11.07 1.0777 28.681 11.48 -6.7538 -27.962 -0 0 -0 3.5768 0.68046 12.311 -4.9186 1.4031 -10.93 1.6266 -0.34345 12.043 -0.48534 -3.353 -3.7924 -0.48534 -3.353 -3.7924 -1.5488 5.561 26.799 0.97925 -18.844 -9.6208 -0 0 -0 -0 0 -0 -0 0 -0 -0 0 -0 -1.5488 5.561 26.799 -7.0543 -3.6406 -2.9625 -0 0 -0 -0 0 -0 -0 0 -0 -0 0 -0 
0 0.95228 0 -0 0 -0 -1.8323 5.5067 28.713 -0.17927 -2.2006 0.6869 -0.17927 -2.2006 0.68691 -0.15235 -1.8483 0.57742 -0 0 -0 0.020174 2.9186 -10.814 -10.814 2.0836 28.463 11.754 -6.6713 -28.442 -0 0 -0 3.6041 0.66117 14.765 -5.3614 2.5275 -10.355 1.8609 -0.96169 12.802 -0.40837 -2.8191 -3.8839 -0.40837 -2.8191 -3.8839 -1.8323 5.5067 28.713 0.87421 -19.758 -9.962 -0 0 -0 -0 0 -0 -0 0 -0 -0 0 -0 -1.8323 5.5067 28.713 -6.7472 -3.6663 -3.9825 -0 0 -0 -0 0 -0 -0 0 -0 -0 0 -0 
0 0.95228 0 -0 0 -0 -1.9065 5.3471 30.024 0.0023913 -2.3154 0.71848 0.0023913 -2.3154 0.71848 5.6071e-05 -1.945 0.60346 -0 0 -0 0.12528 4.3131 -9.0618 -10.313 3.371 28.241 12.155 -6.2642 -28.82 -0 0 -0 3.7185 0.22059 16.13 -5.7102 3.2189 -8.0591 2.4233 -1.6531 12.541 -0.27229 -2.3354 -3.814 -0.27229 -2.3354 -3.814 -1.9065 5.3471 30.024 0.70016 -20.372 -10.427 -0 0 -0 -0 0 -0 -0 0 -0 -0 0 -0 -1.9065 5.3471 30.024 -6.5193 -3.6077 -4.8537 -0 0 -0 -0 0 -0 -0 0 -0 -0 0 -0 
0 0.95228 0 -0 0 -0 -1.789 5.0867 30.745 0.11757 -2.3947 0.76312 0.11757 -2.3947 0.76312 0.096606 -2.0117 0.64062 -0 0 -0 0.47558 5.8051 -7.3783 -9.8139 4.4157 28.075 12.32 -5.6707 -27.762 -0 0 -0 4.0711 -0.53026 16.297 -5.8468 3.1098 -5.8027 3.0321 -2.7188 11.027 -0.11707 -1.9476 -3.6077 -0.11707 -1.9476 -3.6077 -1.789 5.0867 30.745 0.56336 -20.667 -11.14 -0 0 -0 -0 0 -0 -0 0 -0 -0 0 -0 -1.789 5.0867 30.745 -6.3142 -3.4381 -5.6422 -0 0 -0 -0 0 -0 -0 0 -0 -0 0 -0 
0 0.95228 0 -0 0 -0 -1.5515 4.7415 30.824 0.22622 -2.4418 0.83245 0.22622 -2.4418 0.83245 0.18762 -2.0513 0.69853 -0 0 -0 0.88096 7.3315 -5.7869 -9.5829 4.9245 27.734 12.701 -5.4638 -29.098 -0 0 -0 4.4052 -1.2135 16.128 -5.643 1.9005 -4.8482 3.5775 -3.7765 9.3466 -0.018179 -1.6118 -3.3094 -0.018179 -1.6118 -3.3094 -1.5515 4.7415 30.824 0.79505 -20.686 -11.886 -0 0 -0 -0 0 -0 -0 0 -0 -0 0 -0 -1.5515 4.7415 30.824 -6.1219 -3.1852 -6.2396 -0 0 -0 -0 0 -0 -0 0 -0 -0 0 -0 
0 0.95228 0 -0 0 -0 -1.1738 4.3612 30.454 0.27525 -2.4341 0.90641 0.27525 -2.4341 0.90641 0.22859 -2.0449 0.76052 -0 0 -0 1.3031 8.7001 -4.5383 -9.5053 5.1315 26.688 12.61 -4.8369 -29.326 -0 0 -0 4.6049 -1.6137 15.908 -5.0422 -0.3026 -4.8392 4.0648 -4.4137 8.195 0.062006 -1.3855 -3.0284 0.062006 -1.3855 -3.0284 -1.1738 4.3612 30.454 0.85979 -20.607 -12.228 -0 0 -0 -0 0 -0 -0 0 -0 -0 0 -0 -1.1738 4.3612 30.454 -5.9666 -2.8914 -6.6567 -0 0 -0 -0 0 -0 -0 0 -0 -0 0 -0 
0 0.95228 0 -0 0 -0 -0.77028 3.9968 29.897 0.29053 -2.4272 0.9149 0.29053 -2.4272 0.9149 0.24141 -2.0392 0.76761 -0 0 -0 1.7012 9.9868 -4.1755 -9.7247 4.5962 26.292 12.324 -4.4998 -29.029 -0 0 -0 4.461 -1.6713 15.381 -3.9636 -3.1129 -4.4857 4.5497 -4.5243 7.2815 0.1363 -1.233 -2.7359 0.1363 -1.233 -2.7359 -0.77028 3.9968 29.897 0.71746 -20.598 -12.532 -0 0 -0 -0 0 -0 -0 0 -0 -0 0 -0 -0.77028 3.9968 29.897 -5.8367 -2.5384 -6.8369 -0 0 -0 -0 0 -0 -0 0 -0 -0 0 -0 
0 0.95228 0 -0 0 -0 -0.3769 3.7051 29.268 0.29962 -2.4538 0.90162 0.29962 -2.4538 0.90162 0.24906 -2.0616 0.75642 -0 0 -0 1.8669 10.734 -4.02 -9.9801 4.0537 25.756 12.345 -4.4117 -30.001 -0 0 -0 4.0261 -1.6024 13.891 -2.4969 -5.7756 -2.6995 5.1787 -3.8303 6.2776 0.19724 -1.1202 -2.4691 0.19724 -1.1202 -2.4691 -0.3769 3.7051 29.268 0.40106 -20.81 -13.016 -0 0 -0 -0 0 -0 -0 0 -0 -0 0 -0 -0.3769 3.7051 29.268 -5.8328 -2.1121 -6.9006 -0 0 -0 -0 0 -0 -0 0 -0 -0 0 -0 
